# xmcd CD database file
#
# Track frame offsets:
#	150
#	22842
#	49370
#	67164
#	86899
#	123685
#	148530
#	171858
#
# Disc length: 3022 seconds
#
# Revision: 0
# Processed by: cddbd v1.5.2PL0 Copyright (c) Steve Scherf et al.
# Submitted via: CDex 1.70beta2
#
DISCID=750bcc08
DTITLE=Magnus Broo - Swedish Wood
DYEAR=2010
DGENRE=Jazz
TTITLE0=Oh What A Beautiful Day
TTITLE1=Thoughts Are Things
TTITLE2=Acoustic Kitten
TTITLE3=Swedish Wood
TTITLE4=I Hear You
TTITLE5=I Am Coming Home
TTITLE6=And Suddenly
TTITLE7=New Weather
EXTD=YEAR: 2010
EXTT0=
EXTT1=
EXTT2=
EXTT3=
EXTT4=
EXTT5=
EXTT6=
EXTT7=
PLAYORDER=
